<svg xmlns="http://www.w3.org/2000/svg"  viewBox="0 0 100 100" width="200px" height="200px"><path fill="#f15b6c" d="M23.483,77.881c-0.761-7.468-1.821-21.985,0.858-26.392c0,0,12.66,4.979,19.66,1.979 c0,0,13.17-2,10.085-15c0,0-1.809-7.787-15.447-6.894l-11.362,0.511c0,0,7.723-16.617,21.723-13.617c0,0,20-1,19,27L66.979,82 l-38.475,0.364C25.922,82.389,23.744,80.45,23.483,77.881z"/><path fill="#f58f8f" d="M23.681,51.851L23,57c0,0,3.593,18.053,16.383,18.213c0,0,14.149,2.83,18.383-6.191 c0,0,6.043-10.617,6.638-21.319c0,0,2.404-19.532-6-26.617c0,0-19-10.766-30.702,9.574L23.681,51.851z"/><path fill="#6475a5" d="M20,39c0,0-3,15,17,15c0,0,24-0.123,16-18.061c0,0,1-5.939-18-4.939C35,31,25,29,20,39z"/><path fill="#78a2d2" d="M28,32c0,0-8,4-7,7c0,0,0.569,6.91,19,6c0,0,8,0,10.984-6.617C50.984,38.383,54,32,39,31L28,32z"/><path fill="#c7dff1" d="M40.515,34.354c-2.831-1.748-11.255-0.414-13.868,2.199c-0.721,0.721-1.006,1.428-0.847,2.101 c0.175,0.743,0.885,1.385,2.046,1.772c1.153,0.385,2.922,0.681,4.564,0.686c0.619,0.002,1.777,0.005,2.394-0.048 c0.823-0.071,2.298-0.322,3.223-0.718c0.67-0.287,1.503-0.79,1.979-1.133c0.724-0.522,1.2-1.34,1.469-2.148 C41.852,35.932,41.511,34.97,40.515,34.354z"/><path fill="#f15b6c" d="M67,81l1-39c0,0,13-3,13,13c0,0,0,13.578-1.277,21.585c-0.494,3.1-3.335,5.269-6.461,4.985L67,81z"/><path fill="#f58f8f" d="M67.34,50.606c0,0,8.649-2.681,12.574,4.468L79,47l-5-5h-6L67.34,50.606z"/><path fill="#1f212b" d="M48.543,41.683c-0.13,0-0.26-0.051-0.358-0.15c-0.193-0.198-0.189-0.515,0.008-0.707 c1.596-1.559,2.35-3.352,2.068-4.92c-0.287-1.598-1.658-2.984-3.965-4.01c-0.252-0.112-0.366-0.408-0.254-0.66 c0.112-0.253,0.408-0.365,0.66-0.254c3.315,1.474,4.301,3.396,4.543,4.747c0.341,1.9-0.517,4.019-2.354,5.812 C48.795,41.636,48.669,41.683,48.543,41.683z"/><path fill="#1f212b" d="M42.941,44.556c-0.24,0-0.452-0.173-0.493-0.418c-0.045-0.272,0.139-0.53,0.411-0.575 c1.11-0.185,2.347-0.644,3.395-1.259c0.238-0.141,0.544-0.061,0.684,0.178c0.14,0.237,0.06,0.544-0.178,0.684 c-1.149,0.676-2.511,1.18-3.737,1.384C42.996,44.554,42.968,44.556,42.941,44.556z"/><path fill="#1f212b" d="M27.762,67.859c-0.165,0-0.326-0.081-0.422-0.23c-0.644-1.005-1.25-2.112-1.801-3.292 c-0.117-0.25-0.009-0.548,0.241-0.665c0.251-0.116,0.548-0.009,0.665,0.241c0.533,1.14,1.118,2.208,1.738,3.177 c0.149,0.232,0.081,0.542-0.152,0.69C27.948,67.834,27.854,67.859,27.762,67.859z"/><path fill="#1f212b" d="M25.082,62.491c-0.2,0-0.39-0.121-0.466-0.319c-1.048-2.701-1.602-5.054-1.9-6.317 c-0.087-0.369-0.147-0.631-0.19-0.758c-0.087-0.262,0.054-0.545,0.316-0.633c0.262-0.088,0.545,0.056,0.632,0.316 c0.047,0.143,0.117,0.433,0.214,0.845c0.292,1.24,0.837,3.549,1.859,6.186c0.1,0.258-0.028,0.547-0.285,0.646 C25.203,62.48,25.142,62.491,25.082,62.491z"/><path fill="#1f212b" d="M77.006,51.685c-0.09,0-0.182-0.024-0.264-0.075c-0.699-0.437-1.489-0.78-2.348-1.023 c-0.266-0.075-0.42-0.352-0.345-0.618c0.075-0.266,0.353-0.417,0.617-0.345c0.949,0.27,1.826,0.651,2.604,1.137 c0.234,0.146,0.306,0.455,0.16,0.689C77.336,51.602,77.173,51.685,77.006,51.685z"/><path fill="#1f212b" d="M80.297,47.005c-1.173-3.629-4.593-6.066-8.51-6.066H69c-0.028,0-0.056,0.001-0.083,0.003	c-1.141-20.021-13.643-22.784-14.705-22.98c-19.042-4.746-26.87,10.767-27.999,13.278c-4.318,2.541-6.752,5.651-7.233,9.251	c-0.669,4.991,2.655,9.293,3.881,10.688c-1.957,6.185-1.076,19.077-0.355,26.363c0.304,3.077,2.87,5.397,5.967,5.397	c0.276,0.001,22.692,0.071,37.55,0.071c3.385,0,6.38-0.004,8.629-0.013c3.015-0.012,5.563-2.275,5.928-5.266	C81.566,69.635,82.843,54.876,80.297,47.005z M20.963,40.745c0.011-0.079,0.036-0.155,0.049-0.233	c1.572,1.947,5.569,4.602,15.696,4.602c1.187,0,2.459-0.037,3.821-0.115c0.276-0.016,0.486-0.252,0.47-0.527	c-0.016-0.276-0.253-0.491-0.528-0.471c-14.191,0.815-18.085-3.018-19.118-4.784c0.835-2.365,2.84-4.488,6.006-6.326	c6.048-1.073,21.771-2.455,24.746,3.494c1.906,3.813,1.827,7.937-0.214,11.031c-2.642,4.007-8.266,5.969-15.781,5.527	c-2.413-0.268-9.121-1.29-11.479-2.793C24.061,49.542,20.337,45.368,20.963,40.745z M66.024,81.01c-0.001,0-0.003,0-0.004,0	c-14.853,0-37.267-0.07-37.545-0.071c-2.066,0-3.777-1.545-3.979-3.595c-0.551-5.576-1.581-18.659,0.101-24.962	c3.763,1.693,10.96,2.513,11.346,2.555c0.739,0.044,1.461,0.065,2.167,0.065c7.23,0,12.672-2.268,15.453-6.484	C56,44.82,56.124,39.95,53.895,35.491c-3.603-7.204-19.611-5.622-25.182-4.834c1.896-3.558,7.406-11.587,18.55-11.587	c2.01,0,4.205,0.262,6.592,0.857c0.264,0.04,3.438,0.586,6.601,3.699c7.318,12.857,2.18,34.506,0.09,39.104	c-5.574,12.263-8.817,12.25-17.483,12.212L41.5,74.938c-4.75,0-8.755-1.979-11.904-5.88c-0.173-0.215-0.488-0.249-0.703-0.074	c-0.215,0.173-0.248,0.488-0.075,0.703c3.349,4.147,7.615,6.251,12.683,6.251l1.558,0.004c0.469,0.003,0.924,0.005,1.365,0.005	c7.909,0,11.5-0.63,17.032-12.802c1.94-4.269,6.442-22.935,1.613-36.214C65.271,30.501,67,35.861,67,43.912L66.024,81.01z M78.594,77.489c-0.243,1.992-1.941,3.5-3.95,3.508c-1.793,0.007-4.058,0.011-6.619,0.012l0.808-30.711	c0.784-0.114,2.13-0.241,3.646-0.078c0.274,0.024,0.521-0.17,0.551-0.443c0.03-0.274-0.169-0.521-0.443-0.551	c-1.526-0.166-2.868-0.059-3.727,0.057L69,43.938c0-0.337-0.003-0.672-0.009-1c0.003,0,0.006,0,0.009,0h2.787	c3.046,0,5.701,1.882,6.607,4.682c0.465,1.439,0.791,3.15,1.009,5.021c-0.177-0.194-0.362-0.385-0.565-0.571	c-0.204-0.187-0.521-0.172-0.707,0.031c-0.187,0.204-0.172,0.521,0.031,0.707c0.59,0.54,1.05,1.113,1.429,1.803	C80.194,62.62,79.18,72.686,78.594,77.489z"/><path fill="#1f212b" d="M34.798,41.058c-0.254,0-0.472-0.192-0.497-0.451c-0.027-0.274,0.174-0.52,0.448-0.547 c1.072-0.105,2.029-0.312,2.845-0.614c0.259-0.098,0.546,0.036,0.643,0.295c0.096,0.259-0.036,0.547-0.295,0.643 c-0.896,0.332-1.938,0.559-3.094,0.673C34.831,41.057,34.814,41.058,34.798,41.058z"/><path fill="#1f212b" d="M32.323,41.126c-0.006,0-0.013,0-0.019,0c-1.641-0.063-3.309-0.328-4.462-0.713 c-1.16-0.387-1.866-0.984-2.042-1.728c-0.159-0.673,0.126-1.38,0.847-2.101c2.613-2.613,11.037-3.949,13.868-2.199 c0.996,0.616,1.337,1.578,0.96,2.711c-0.269,0.808-0.749,1.512-1.428,2.092c-0.21,0.18-0.525,0.154-0.705-0.055 c-0.18-0.21-0.155-0.525,0.055-0.705c0.538-0.461,0.918-1.015,1.129-1.648c0.232-0.695,0.066-1.171-0.537-1.544 c-2.444-1.51-10.356-0.223-12.635,2.056c-0.316,0.315-0.673,0.773-0.58,1.164c0.089,0.377,0.594,0.744,1.385,1.008 c1.068,0.356,2.632,0.604,4.184,0.662c0.276,0.011,0.491,0.243,0.481,0.519C32.813,40.914,32.591,41.126,32.323,41.126z"/></svg>